<?xml version="1.0" encoding="UTF-8" standalone="no"?>
<!DOCTYPE svg PUBLIC "-//W3C//DTD SVG 1.1//EN"
 "http://www.w3.org/Graphics/SVG/1.1/DTD/svg11.dtd">
<!-- Generated by graphviz version 2.44.0 (0)
 -->
<!-- Title: G Pages: 1 -->
<svg width="627pt" height="548pt"
 viewBox="0.00 0.00 627.34 548.00" xmlns="http://www.w3.org/2000/svg" xmlns:xlink="http://www.w3.org/1999/xlink">
<g id="graph0" class="graph" transform="scale(1 1) rotate(0) translate(4 544)">
<title>G</title>
<polygon fill="white" stroke="transparent" points="-4,4 -4,-544 623.34,-544 623.34,4 -4,4"/>
<!-- Gen_Base -->
<g id="node1" class="node">
<title>Gen_Base</title>
<ellipse fill="none" stroke="black" cx="274.24" cy="-90" rx="55.79" ry="18"/>
<text text-anchor="middle" x="274.24" y="-86.3" font-family="Times,serif" font-size="14.00">Gen_Base</text>
</g>
<!-- Random -->
<g id="node2" class="node">
<title>Random</title>
<ellipse fill="none" stroke="black" cx="190.24" cy="-18" rx="48.99" ry="18"/>
<text text-anchor="middle" x="190.24" y="-14.3" font-family="Times,serif" font-size="14.00">Random</text>
</g>
<!-- Gen_Base&#45;&gt;Random -->
<g id="edge1" class="edge">
<title>Gen_Base&#45;&gt;Random</title>
<path fill="none" stroke="black" d="M254.76,-72.76C243.47,-63.36 229.1,-51.38 216.78,-41.12"/>
<polygon fill="black" stroke="black" points="218.96,-38.38 209.04,-34.67 214.48,-43.76 218.96,-38.38"/>
</g>
<!-- Gen_Datatypes -->
<g id="node3" class="node">
<title>Gen_Datatypes</title>
<ellipse fill="none" stroke="black" cx="81.24" cy="-162" rx="81.49" ry="18"/>
<text text-anchor="middle" x="81.24" y="-158.3" font-family="Times,serif" font-size="14.00">Gen_Datatypes</text>
</g>
<!-- Gen_Datatypes&#45;&gt;Gen_Base -->
<g id="edge3" class="edge">
<title>Gen_Datatypes&#45;&gt;Gen_Base</title>
<path fill="none" stroke="black" d="M121.7,-146.33C152.96,-134.99 196.21,-119.3 228.68,-107.53"/>
<polygon fill="black" stroke="black" points="230.18,-110.7 238.39,-104 227.79,-104.12 230.18,-110.7"/>
</g>
<!-- Gen_Datatypes&#45;&gt;Random -->
<g id="edge2" class="edge">
<title>Gen_Datatypes&#45;&gt;Random</title>
<path fill="none" stroke="black" d="M94.17,-144.15C113.27,-119.28 149.12,-72.57 171.22,-43.79"/>
<polygon fill="black" stroke="black" points="174.02,-45.89 177.33,-35.82 168.46,-41.63 174.02,-45.89"/>
</g>
<!-- Gen_Term -->
<g id="node4" class="node">
<title>Gen_Term</title>
<ellipse fill="none" stroke="black" cx="188.24" cy="-234" rx="57.69" ry="18"/>
<text text-anchor="middle" x="188.24" y="-230.3" font-family="Times,serif" font-size="14.00">Gen_Term</text>
</g>
<!-- Gen_Term&#45;&gt;Gen_Base -->
<g id="edge5" class="edge">
<title>Gen_Term&#45;&gt;Gen_Base</title>
<path fill="none" stroke="black" d="M198.45,-216.15C213.38,-191.49 241.31,-145.37 258.78,-116.53"/>
<polygon fill="black" stroke="black" points="261.87,-118.19 264.05,-107.82 255.88,-114.57 261.87,-118.19"/>
</g>
<!-- Gen_Term&#45;&gt;Random -->
<g id="edge4" class="edge">
<title>Gen_Term&#45;&gt;Random</title>
<path fill="none" stroke="black" d="M188.4,-215.85C188.75,-178.83 189.57,-91.18 189.99,-46.39"/>
<polygon fill="black" stroke="black" points="193.49,-46.26 190.08,-36.23 186.49,-46.2 193.49,-46.26"/>
</g>
<!-- Gen_Term&#45;&gt;Gen_Datatypes -->
<g id="edge6" class="edge">
<title>Gen_Term&#45;&gt;Gen_Datatypes</title>
<path fill="none" stroke="black" d="M164.5,-217.46C149.85,-207.88 130.83,-195.44 114.68,-184.87"/>
<polygon fill="black" stroke="black" points="116.32,-181.77 106.04,-179.22 112.49,-187.63 116.32,-181.77"/>
</g>
<!-- Generator -->
<g id="node5" class="node">
<title>Generator</title>
<ellipse fill="none" stroke="black" cx="188.24" cy="-306" rx="57.69" ry="18"/>
<text text-anchor="middle" x="188.24" y="-302.3" font-family="Times,serif" font-size="14.00">Generator</text>
</g>
<!-- Generator&#45;&gt;Gen_Base -->
<g id="edge7" class="edge">
<title>Generator&#45;&gt;Gen_Base</title>
<path fill="none" stroke="black" d="M216.16,-290.06C230.27,-280.99 246.27,-268.05 255.24,-252 278.78,-209.88 279.31,-151.96 277.1,-118.3"/>
<polygon fill="black" stroke="black" points="280.58,-117.97 276.31,-108.28 273.6,-118.52 280.58,-117.97"/>
</g>
<!-- Generator&#45;&gt;Gen_Datatypes -->
<g id="edge8" class="edge">
<title>Generator&#45;&gt;Gen_Datatypes</title>
<path fill="none" stroke="black" d="M163.17,-289.51C149.4,-280.02 132.82,-266.86 121.24,-252 106.66,-233.28 96.06,-208.41 89.45,-189.71"/>
<polygon fill="black" stroke="black" points="92.7,-188.4 86.19,-180.04 86.07,-190.64 92.7,-188.4"/>
</g>
<!-- Generator&#45;&gt;Gen_Term -->
<g id="edge9" class="edge">
<title>Generator&#45;&gt;Gen_Term</title>
<path fill="none" stroke="black" d="M188.24,-287.7C188.24,-279.98 188.24,-270.71 188.24,-262.11"/>
<polygon fill="black" stroke="black" points="191.74,-262.1 188.24,-252.1 184.74,-262.1 191.74,-262.1"/>
</g>
<!-- Spec_Check -->
<g id="node6" class="node">
<title>Spec_Check</title>
<ellipse fill="none" stroke="black" cx="367.24" cy="-450" rx="65.79" ry="18"/>
<text text-anchor="middle" x="367.24" y="-446.3" font-family="Times,serif" font-size="14.00">Spec_Check</text>
</g>
<!-- Spec_Check&#45;&gt;Generator -->
<g id="edge12" class="edge">
<title>Spec_Check&#45;&gt;Generator</title>
<path fill="none" stroke="black" d="M307.2,-442.67C249.6,-435.21 168.59,-420.61 149.24,-396 133.92,-376.5 149.05,-350.05 164.72,-331.06"/>
<polygon fill="black" stroke="black" points="167.45,-333.26 171.38,-323.42 162.17,-328.66 167.45,-333.26"/>
</g>
<!-- Property -->
<g id="node7" class="node">
<title>Property</title>
<ellipse fill="none" stroke="black" cx="374.24" cy="-306" rx="51.99" ry="18"/>
<text text-anchor="middle" x="374.24" y="-302.3" font-family="Times,serif" font-size="14.00">Property</text>
</g>
<!-- Spec_Check&#45;&gt;Property -->
<g id="edge10" class="edge">
<title>Spec_Check&#45;&gt;Property</title>
<path fill="none" stroke="black" d="M368.09,-431.87C369.28,-407.67 371.47,-363.21 372.89,-334.39"/>
<polygon fill="black" stroke="black" points="376.4,-334.35 373.4,-324.19 369.41,-334 376.4,-334.35"/>
</g>
<!-- Configuration -->
<g id="node8" class="node">
<title>Configuration</title>
<ellipse fill="none" stroke="black" cx="545.24" cy="-306" rx="74.19" ry="18"/>
<text text-anchor="middle" x="545.24" y="-302.3" font-family="Times,serif" font-size="14.00">Configuration</text>
</g>
<!-- Spec_Check&#45;&gt;Configuration -->
<g id="edge11" class="edge">
<title>Spec_Check&#45;&gt;Configuration</title>
<path fill="none" stroke="black" d="M423.46,-440.54C472.27,-431.91 537.51,-416.84 553.24,-396 566.55,-378.37 562.58,-352.81 556.43,-333.6"/>
<polygon fill="black" stroke="black" points="559.65,-332.19 553,-323.95 553.05,-334.54 559.65,-332.19"/>
</g>
<!-- Gen_Construction -->
<g id="node9" class="node">
<title>Gen_Construction</title>
<ellipse fill="none" stroke="black" cx="252.24" cy="-378" rx="93.68" ry="18"/>
<text text-anchor="middle" x="252.24" y="-374.3" font-family="Times,serif" font-size="14.00">Gen_Construction</text>
</g>
<!-- Spec_Check&#45;&gt;Gen_Construction -->
<g id="edge13" class="edge">
<title>Spec_Check&#45;&gt;Gen_Construction</title>
<path fill="none" stroke="black" d="M341.43,-433.29C325.64,-423.68 305.22,-411.25 287.9,-400.7"/>
<polygon fill="black" stroke="black" points="289.53,-397.6 279.16,-395.39 285.89,-403.58 289.53,-397.6"/>
</g>
<!-- Output_Style -->
<g id="node10" class="node">
<title>Output_Style</title>
<ellipse fill="none" stroke="black" cx="473.24" cy="-378" rx="71.49" ry="18"/>
<text text-anchor="middle" x="473.24" y="-374.3" font-family="Times,serif" font-size="14.00">Output_Style</text>
</g>
<!-- Spec_Check&#45;&gt;Output_Style -->
<g id="edge14" class="edge">
<title>Spec_Check&#45;&gt;Output_Style</title>
<path fill="none" stroke="black" d="M391.3,-433.12C405.83,-423.52 424.55,-411.15 440.43,-400.67"/>
<polygon fill="black" stroke="black" points="442.5,-403.49 448.92,-395.06 438.64,-397.65 442.5,-403.49"/>
</g>
<!-- Gen_Construction&#45;&gt;Generator -->
<g id="edge15" class="edge">
<title>Gen_Construction&#45;&gt;Generator</title>
<path fill="none" stroke="black" d="M236.75,-360.05C228.89,-351.46 219.2,-340.86 210.55,-331.4"/>
<polygon fill="black" stroke="black" points="212.92,-328.81 203.59,-323.79 207.76,-333.53 212.92,-328.81"/>
</g>
<!-- Gen_Construction&#45;&gt;Property -->
<g id="edge16" class="edge">
<title>Gen_Construction&#45;&gt;Property</title>
<path fill="none" stroke="black" d="M280.54,-360.76C298.2,-350.63 321.06,-337.51 339.78,-326.77"/>
<polygon fill="black" stroke="black" points="341.66,-329.73 348.59,-321.72 338.18,-323.66 341.66,-329.73"/>
</g>
<!-- Output_Style&#45;&gt;Property -->
<g id="edge17" class="edge">
<title>Output_Style&#45;&gt;Property</title>
<path fill="none" stroke="black" d="M450.28,-360.76C436.63,-351.11 419.14,-338.75 404.39,-328.31"/>
<polygon fill="black" stroke="black" points="406.25,-325.34 396.06,-322.43 402.21,-331.06 406.25,-325.34"/>
</g>
<!-- Output_Style&#45;&gt;Configuration -->
<g id="edge18" class="edge">
<title>Output_Style&#45;&gt;Configuration</title>
<path fill="none" stroke="black" d="M490.31,-360.41C499.32,-351.65 510.55,-340.73 520.5,-331.06"/>
<polygon fill="black" stroke="black" points="523.07,-333.44 527.8,-323.96 518.19,-328.42 523.07,-333.44"/>
</g>
<!-- Spec_Check_Comp -->
<g id="node11" class="node">
<title>Spec_Check_Comp</title>
<ellipse fill="none" stroke="black" cx="313.24" cy="-522" rx="96.68" ry="18"/>
<text text-anchor="middle" x="313.24" y="-518.3" font-family="Times,serif" font-size="14.00">Spec_Check_Comp</text>
</g>
<!-- Spec_Check_Comp&#45;&gt;Spec_Check -->
<g id="edge19" class="edge">
<title>Spec_Check_Comp&#45;&gt;Spec_Check</title>
<path fill="none" stroke="black" d="M326.31,-504.05C332.81,-495.63 340.8,-485.28 347.98,-475.97"/>
<polygon fill="black" stroke="black" points="350.95,-477.84 354.29,-467.79 345.41,-473.57 350.95,-477.84"/>
</g>
<!-- Spec_Check_Comp&#45;&gt;Gen_Construction -->
<g id="edge20" class="edge">
<title>Spec_Check_Comp&#45;&gt;Gen_Construction</title>
<path fill="none" stroke="black" d="M305.88,-503.87C295.4,-479.46 276.05,-434.43 263.68,-405.64"/>
<polygon fill="black" stroke="black" points="266.79,-404 259.63,-396.19 260.36,-406.76 266.79,-404"/>
</g>
</g>
</svg>
