<?xml version="1.0" encoding="UTF-8" standalone="no"?>
<!DOCTYPE svg PUBLIC "-//W3C//DTD SVG 1.1//EN"
 "http://www.w3.org/Graphics/SVG/1.1/DTD/svg11.dtd">
<!-- Generated by graphviz version 2.44.0 (0)
 -->
<!-- Title: G Pages: 1 -->
<svg width="535pt" height="548pt"
 viewBox="0.00 0.00 534.74 548.00" xmlns="http://www.w3.org/2000/svg" xmlns:xlink="http://www.w3.org/1999/xlink">
<g id="graph0" class="graph" transform="scale(1 1) rotate(0) translate(4 544)">
<title>G</title>
<polygon fill="white" stroke="transparent" points="-4,4 -4,-544 530.74,-544 530.74,4 -4,4"/>
<!-- Gen_Base -->
<g id="node1" class="node">
<title>Gen_Base</title>
<ellipse fill="none" stroke="black" cx="274.24" cy="-90" rx="55.79" ry="18"/>
<text text-anchor="middle" x="274.24" y="-86.3" font-family="Times,serif" font-size="14.00">Gen_Base</text>
</g>
<!-- Random -->
<g id="node2" class="node">
<title>Random</title>
<ellipse fill="none" stroke="black" cx="190.24" cy="-18" rx="48.99" ry="18"/>
<text text-anchor="middle" x="190.24" y="-14.3" font-family="Times,serif" font-size="14.00">Random</text>
</g>
<!-- Gen_Base&#45;&gt;Random -->
<g id="edge1" class="edge">
<title>Gen_Base&#45;&gt;Random</title>
<path fill="none" stroke="black" d="M254.76,-72.76C243.47,-63.36 229.1,-51.38 216.78,-41.12"/>
<polygon fill="black" stroke="black" points="218.96,-38.38 209.04,-34.67 214.48,-43.76 218.96,-38.38"/>
</g>
<!-- Gen_Datatypes -->
<g id="node3" class="node">
<title>Gen_Datatypes</title>
<ellipse fill="none" stroke="black" cx="81.24" cy="-162" rx="81.49" ry="18"/>
<text text-anchor="middle" x="81.24" y="-158.3" font-family="Times,serif" font-size="14.00">Gen_Datatypes</text>
</g>
<!-- Gen_Datatypes&#45;&gt;Gen_Base -->
<g id="edge3" class="edge">
<title>Gen_Datatypes&#45;&gt;Gen_Base</title>
<path fill="none" stroke="black" d="M121.7,-146.33C152.96,-134.99 196.21,-119.3 228.68,-107.53"/>
<polygon fill="black" stroke="black" points="230.18,-110.7 238.39,-104 227.79,-104.12 230.18,-110.7"/>
</g>
<!-- Gen_Datatypes&#45;&gt;Random -->
<g id="edge2" class="edge">
<title>Gen_Datatypes&#45;&gt;Random</title>
<path fill="none" stroke="black" d="M94.17,-144.15C113.27,-119.28 149.12,-72.57 171.22,-43.79"/>
<polygon fill="black" stroke="black" points="174.02,-45.89 177.33,-35.82 168.46,-41.63 174.02,-45.89"/>
</g>
<!-- Gen_Term -->
<g id="node4" class="node">
<title>Gen_Term</title>
<ellipse fill="none" stroke="black" cx="188.24" cy="-234" rx="57.69" ry="18"/>
<text text-anchor="middle" x="188.24" y="-230.3" font-family="Times,serif" font-size="14.00">Gen_Term</text>
</g>
<!-- Gen_Term&#45;&gt;Gen_Base -->
<g id="edge5" class="edge">
<title>Gen_Term&#45;&gt;Gen_Base</title>
<path fill="none" stroke="black" d="M198.45,-216.15C213.38,-191.49 241.31,-145.37 258.78,-116.53"/>
<polygon fill="black" stroke="black" points="261.87,-118.19 264.05,-107.82 255.88,-114.57 261.87,-118.19"/>
</g>
<!-- Gen_Term&#45;&gt;Random -->
<g id="edge4" class="edge">
<title>Gen_Term&#45;&gt;Random</title>
<path fill="none" stroke="black" d="M188.4,-215.85C188.75,-178.83 189.57,-91.18 189.99,-46.39"/>
<polygon fill="black" stroke="black" points="193.49,-46.26 190.08,-36.23 186.49,-46.2 193.49,-46.26"/>
</g>
<!-- Gen_Term&#45;&gt;Gen_Datatypes -->
<g id="edge6" class="edge">
<title>Gen_Term&#45;&gt;Gen_Datatypes</title>
<path fill="none" stroke="black" d="M164.5,-217.46C149.85,-207.88 130.83,-195.44 114.68,-184.87"/>
<polygon fill="black" stroke="black" points="116.32,-181.77 106.04,-179.22 112.49,-187.63 116.32,-181.77"/>
</g>
<!-- Generator -->
<g id="node5" class="node">
<title>Generator</title>
<ellipse fill="none" stroke="black" cx="188.24" cy="-306" rx="57.69" ry="18"/>
<text text-anchor="middle" x="188.24" y="-302.3" font-family="Times,serif" font-size="14.00">Generator</text>
</g>
<!-- Generator&#45;&gt;Gen_Base -->
<g id="edge7" class="edge">
<title>Generator&#45;&gt;Gen_Base</title>
<path fill="none" stroke="black" d="M216.16,-290.06C230.27,-280.99 246.27,-268.05 255.24,-252 278.78,-209.88 279.31,-151.96 277.1,-118.3"/>
<polygon fill="black" stroke="black" points="280.58,-117.97 276.31,-108.28 273.6,-118.52 280.58,-117.97"/>
</g>
<!-- Generator&#45;&gt;Gen_Datatypes -->
<g id="edge8" class="edge">
<title>Generator&#45;&gt;Gen_Datatypes</title>
<path fill="none" stroke="black" d="M163.17,-289.51C149.4,-280.02 132.82,-266.86 121.24,-252 106.66,-233.28 96.06,-208.41 89.45,-189.71"/>
<polygon fill="black" stroke="black" points="92.7,-188.4 86.19,-180.04 86.07,-190.64 92.7,-188.4"/>
</g>
<!-- Generator&#45;&gt;Gen_Term -->
<g id="edge9" class="edge">
<title>Generator&#45;&gt;Gen_Term</title>
<path fill="none" stroke="black" d="M188.24,-287.7C188.24,-279.98 188.24,-270.71 188.24,-262.11"/>
<polygon fill="black" stroke="black" points="191.74,-262.1 188.24,-252.1 184.74,-262.1 191.74,-262.1"/>
</g>
<!-- Spec_Check -->
<g id="node6" class="node">
<title>Spec_Check</title>
<ellipse fill="none" stroke="black" cx="361.24" cy="-450" rx="65.79" ry="18"/>
<text text-anchor="middle" x="361.24" y="-446.3" font-family="Times,serif" font-size="14.00">Spec_Check</text>
</g>
<!-- Spec_Check&#45;&gt;Generator -->
<g id="edge12" class="edge">
<title>Spec_Check&#45;&gt;Generator</title>
<path fill="none" stroke="black" d="M301.78,-442.29C245.82,-434.6 167.89,-419.89 149.24,-396 133.98,-376.45 149.11,-350.01 164.75,-331.03"/>
<polygon fill="black" stroke="black" points="167.47,-333.24 171.4,-323.4 162.19,-328.64 167.47,-333.24"/>
</g>
<!-- Property -->
<g id="node7" class="node">
<title>Property</title>
<ellipse fill="none" stroke="black" cx="374.24" cy="-306" rx="51.99" ry="18"/>
<text text-anchor="middle" x="374.24" y="-302.3" font-family="Times,serif" font-size="14.00">Property</text>
</g>
<!-- Spec_Check&#45;&gt;Property -->
<g id="edge10" class="edge">
<title>Spec_Check&#45;&gt;Property</title>
<path fill="none" stroke="black" d="M362.81,-431.87C365.03,-407.67 369.1,-363.21 371.73,-334.39"/>
<polygon fill="black" stroke="black" points="375.24,-334.47 372.67,-324.19 368.27,-333.83 375.24,-334.47"/>
</g>
<!-- Config -->
<g id="node8" class="node">
<title>Config</title>
<ellipse fill="none" stroke="black" cx="442.24" cy="-378" rx="40.09" ry="18"/>
<text text-anchor="middle" x="442.24" y="-374.3" font-family="Times,serif" font-size="14.00">Config</text>
</g>
<!-- Spec_Check&#45;&gt;Config -->
<g id="edge11" class="edge">
<title>Spec_Check&#45;&gt;Config</title>
<path fill="none" stroke="black" d="M380.44,-432.41C391.31,-423.02 405.04,-411.15 416.8,-400.99"/>
<polygon fill="black" stroke="black" points="419.29,-403.46 424.57,-394.27 414.71,-398.16 419.29,-403.46"/>
</g>
<!-- Gen_Construction -->
<g id="node9" class="node">
<title>Gen_Construction</title>
<ellipse fill="none" stroke="black" cx="252.24" cy="-378" rx="93.68" ry="18"/>
<text text-anchor="middle" x="252.24" y="-374.3" font-family="Times,serif" font-size="14.00">Gen_Construction</text>
</g>
<!-- Spec_Check&#45;&gt;Gen_Construction -->
<g id="edge13" class="edge">
<title>Spec_Check&#45;&gt;Gen_Construction</title>
<path fill="none" stroke="black" d="M336.78,-433.29C321.95,-423.77 302.81,-411.47 286.49,-400.99"/>
<polygon fill="black" stroke="black" points="288.07,-397.85 277.76,-395.39 284.28,-403.74 288.07,-397.85"/>
</g>
<!-- Gen_Construction&#45;&gt;Generator -->
<g id="edge14" class="edge">
<title>Gen_Construction&#45;&gt;Generator</title>
<path fill="none" stroke="black" d="M236.75,-360.05C228.89,-351.46 219.2,-340.86 210.55,-331.4"/>
<polygon fill="black" stroke="black" points="212.92,-328.81 203.59,-323.79 207.76,-333.53 212.92,-328.81"/>
</g>
<!-- Gen_Construction&#45;&gt;Property -->
<g id="edge15" class="edge">
<title>Gen_Construction&#45;&gt;Property</title>
<path fill="none" stroke="black" d="M280.54,-360.76C298.2,-350.63 321.06,-337.51 339.78,-326.77"/>
<polygon fill="black" stroke="black" points="341.66,-329.73 348.59,-321.72 338.18,-323.66 341.66,-329.73"/>
</g>
<!-- Output_Style -->
<g id="node10" class="node">
<title>Output_Style</title>
<ellipse fill="none" stroke="black" cx="455.24" cy="-522" rx="71.49" ry="18"/>
<text text-anchor="middle" x="455.24" y="-518.3" font-family="Times,serif" font-size="14.00">Output_Style</text>
</g>
<!-- Output_Style&#45;&gt;Spec_Check -->
<g id="edge17" class="edge">
<title>Output_Style&#45;&gt;Spec_Check</title>
<path fill="none" stroke="black" d="M433.44,-504.76C420.87,-495.4 404.87,-483.49 391.14,-473.26"/>
<polygon fill="black" stroke="black" points="393.04,-470.31 382.93,-467.15 388.86,-475.93 393.04,-470.31"/>
</g>
<!-- Output_Style&#45;&gt;Property -->
<g id="edge16" class="edge">
<title>Output_Style&#45;&gt;Property</title>
<path fill="none" stroke="black" d="M466.76,-504.02C486.26,-472.97 520.89,-405.98 491.24,-360 477.39,-338.52 452.49,-325.65 429.21,-317.98"/>
<polygon fill="black" stroke="black" points="429.95,-314.55 419.36,-315.01 427.92,-321.25 429.95,-314.55"/>
</g>
<!-- Output_Style&#45;&gt;Config -->
<g id="edge18" class="edge">
<title>Output_Style&#45;&gt;Config</title>
<path fill="none" stroke="black" d="M453.67,-503.87C451.46,-479.67 447.39,-435.21 444.75,-406.39"/>
<polygon fill="black" stroke="black" points="448.21,-405.83 443.82,-396.19 441.24,-406.47 448.21,-405.83"/>
</g>
</g>
</svg>
