<?xml version="1.0" encoding="UTF-8" standalone="no"?>
<!DOCTYPE svg PUBLIC "-//W3C//DTD SVG 1.1//EN"
 "http://www.w3.org/Graphics/SVG/1.1/DTD/svg11.dtd">
<!-- Generated by graphviz version 2.44.0 (0)
 -->
<!-- Title: G Pages: 1 -->
<svg width="586pt" height="476pt"
 viewBox="0.00 0.00 586.34 476.00" xmlns="http://www.w3.org/2000/svg" xmlns:xlink="http://www.w3.org/1999/xlink">
<g id="graph0" class="graph" transform="scale(1 1) rotate(0) translate(4 472)">
<title>G</title>
<polygon fill="white" stroke="transparent" points="-4,4 -4,-472 582.34,-472 582.34,4 -4,4"/>
<!-- Gen_Base -->
<g id="node1" class="node">
<title>Gen_Base</title>
<ellipse fill="none" stroke="black" cx="304.09" cy="-90" rx="55.79" ry="18"/>
<text text-anchor="middle" x="304.09" y="-86.3" font-family="Times,serif" font-size="14.00">Gen_Base</text>
</g>
<!-- Random -->
<g id="node2" class="node">
<title>Random</title>
<ellipse fill="none" stroke="black" cx="388.09" cy="-18" rx="48.99" ry="18"/>
<text text-anchor="middle" x="388.09" y="-14.3" font-family="Times,serif" font-size="14.00">Random</text>
</g>
<!-- Gen_Base&#45;&gt;Random -->
<g id="edge1" class="edge">
<title>Gen_Base&#45;&gt;Random</title>
<path fill="none" stroke="black" d="M323.58,-72.76C334.87,-63.36 349.24,-51.38 361.55,-41.12"/>
<polygon fill="black" stroke="black" points="363.85,-43.76 369.29,-34.67 359.37,-38.38 363.85,-43.76"/>
</g>
<!-- Gen_Datatypes -->
<g id="node3" class="node">
<title>Gen_Datatypes</title>
<ellipse fill="none" stroke="black" cx="497.09" cy="-162" rx="81.49" ry="18"/>
<text text-anchor="middle" x="497.09" y="-158.3" font-family="Times,serif" font-size="14.00">Gen_Datatypes</text>
</g>
<!-- Gen_Datatypes&#45;&gt;Gen_Base -->
<g id="edge3" class="edge">
<title>Gen_Datatypes&#45;&gt;Gen_Base</title>
<path fill="none" stroke="black" d="M456.63,-146.33C425.38,-134.99 382.13,-119.3 349.66,-107.53"/>
<polygon fill="black" stroke="black" points="350.54,-104.12 339.95,-104 348.16,-110.7 350.54,-104.12"/>
</g>
<!-- Gen_Datatypes&#45;&gt;Random -->
<g id="edge2" class="edge">
<title>Gen_Datatypes&#45;&gt;Random</title>
<path fill="none" stroke="black" d="M484.16,-144.15C465.07,-119.28 429.22,-72.57 407.12,-43.79"/>
<polygon fill="black" stroke="black" points="409.87,-41.63 401.01,-35.82 404.32,-45.89 409.87,-41.63"/>
</g>
<!-- Gen_Term -->
<g id="node4" class="node">
<title>Gen_Term</title>
<ellipse fill="none" stroke="black" cx="390.09" cy="-234" rx="57.69" ry="18"/>
<text text-anchor="middle" x="390.09" y="-230.3" font-family="Times,serif" font-size="14.00">Gen_Term</text>
</g>
<!-- Gen_Term&#45;&gt;Gen_Base -->
<g id="edge5" class="edge">
<title>Gen_Term&#45;&gt;Gen_Base</title>
<path fill="none" stroke="black" d="M379.89,-216.15C364.96,-191.49 337.02,-145.37 319.56,-116.53"/>
<polygon fill="black" stroke="black" points="322.46,-114.57 314.28,-107.82 316.47,-118.19 322.46,-114.57"/>
</g>
<!-- Gen_Term&#45;&gt;Random -->
<g id="edge4" class="edge">
<title>Gen_Term&#45;&gt;Random</title>
<path fill="none" stroke="black" d="M389.93,-215.85C389.59,-178.83 388.77,-91.18 388.35,-46.39"/>
<polygon fill="black" stroke="black" points="391.85,-46.2 388.25,-36.23 384.85,-46.26 391.85,-46.2"/>
</g>
<!-- Gen_Term&#45;&gt;Gen_Datatypes -->
<g id="edge6" class="edge">
<title>Gen_Term&#45;&gt;Gen_Datatypes</title>
<path fill="none" stroke="black" d="M413.84,-217.46C428.49,-207.88 447.5,-195.44 463.66,-184.87"/>
<polygon fill="black" stroke="black" points="465.85,-187.63 472.3,-179.22 462.01,-181.77 465.85,-187.63"/>
</g>
<!-- Generator -->
<g id="node5" class="node">
<title>Generator</title>
<ellipse fill="none" stroke="black" cx="369.09" cy="-306" rx="57.69" ry="18"/>
<text text-anchor="middle" x="369.09" y="-302.3" font-family="Times,serif" font-size="14.00">Generator</text>
</g>
<!-- Generator&#45;&gt;Gen_Base -->
<g id="edge7" class="edge">
<title>Generator&#45;&gt;Gen_Base</title>
<path fill="none" stroke="black" d="M350.36,-288.74C340.54,-279.1 329.3,-266.04 323.09,-252 303.77,-208.29 301.72,-151.73 302.53,-118.6"/>
<polygon fill="black" stroke="black" points="306.04,-118.43 302.9,-108.31 299.05,-118.18 306.04,-118.43"/>
</g>
<!-- Generator&#45;&gt;Gen_Datatypes -->
<g id="edge8" class="edge">
<title>Generator&#45;&gt;Gen_Datatypes</title>
<path fill="none" stroke="black" d="M402.16,-291.1C420.29,-282.12 442.06,-268.95 457.09,-252 473.01,-234.06 483.55,-208.75 489.8,-189.7"/>
<polygon fill="black" stroke="black" points="493.15,-190.7 492.76,-180.12 486.46,-188.64 493.15,-190.7"/>
</g>
<!-- Generator&#45;&gt;Gen_Term -->
<g id="edge9" class="edge">
<title>Generator&#45;&gt;Gen_Term</title>
<path fill="none" stroke="black" d="M374.18,-288.05C376.52,-280.26 379.35,-270.82 381.97,-262.08"/>
<polygon fill="black" stroke="black" points="385.39,-262.86 384.91,-252.28 378.68,-260.85 385.39,-262.86"/>
</g>
<!-- Spec_Check -->
<g id="node6" class="node">
<title>Spec_Check</title>
<ellipse fill="none" stroke="black" cx="169.09" cy="-378" rx="65.79" ry="18"/>
<text text-anchor="middle" x="169.09" y="-374.3" font-family="Times,serif" font-size="14.00">Spec_Check</text>
</g>
<!-- Spec_Check&#45;&gt;Generator -->
<g id="edge12" class="edge">
<title>Spec_Check&#45;&gt;Generator</title>
<path fill="none" stroke="black" d="M208.13,-363.34C240.97,-351.84 287.98,-335.39 322.73,-323.23"/>
<polygon fill="black" stroke="black" points="323.9,-326.53 332.18,-319.92 321.59,-319.92 323.9,-326.53"/>
</g>
<!-- Property -->
<g id="node7" class="node">
<title>Property</title>
<ellipse fill="none" stroke="black" cx="224.09" cy="-234" rx="51.99" ry="18"/>
<text text-anchor="middle" x="224.09" y="-230.3" font-family="Times,serif" font-size="14.00">Property</text>
</g>
<!-- Spec_Check&#45;&gt;Property -->
<g id="edge10" class="edge">
<title>Spec_Check&#45;&gt;Property</title>
<path fill="none" stroke="black" d="M193.89,-361.29C206.04,-352.07 219.45,-339.24 226.09,-324 234.56,-304.58 233.38,-280.43 230.46,-262.19"/>
<polygon fill="black" stroke="black" points="233.88,-261.41 228.61,-252.22 227,-262.69 233.88,-261.41"/>
</g>
<!-- Configuration -->
<g id="node8" class="node">
<title>Configuration</title>
<ellipse fill="none" stroke="black" cx="74.09" cy="-234" rx="74.19" ry="18"/>
<text text-anchor="middle" x="74.09" y="-230.3" font-family="Times,serif" font-size="14.00">Configuration</text>
</g>
<!-- Spec_Check&#45;&gt;Configuration -->
<g id="edge11" class="edge">
<title>Spec_Check&#45;&gt;Configuration</title>
<path fill="none" stroke="black" d="M122.61,-365.16C101.5,-357.21 78.5,-344.34 66.09,-324 54.78,-305.45 58.24,-280.56 63.69,-261.81"/>
<polygon fill="black" stroke="black" points="67.08,-262.71 66.85,-252.11 60.43,-260.54 67.08,-262.71"/>
</g>
<!-- Output_Style -->
<g id="node9" class="node">
<title>Output_Style</title>
<ellipse fill="none" stroke="black" cx="146.09" cy="-306" rx="71.49" ry="18"/>
<text text-anchor="middle" x="146.09" y="-302.3" font-family="Times,serif" font-size="14.00">Output_Style</text>
</g>
<!-- Spec_Check&#45;&gt;Output_Style -->
<g id="edge13" class="edge">
<title>Spec_Check&#45;&gt;Output_Style</title>
<path fill="none" stroke="black" d="M163.53,-360.05C160.94,-352.18 157.8,-342.62 154.9,-333.79"/>
<polygon fill="black" stroke="black" points="158.22,-332.68 151.77,-324.28 151.57,-334.87 158.22,-332.68"/>
</g>
<!-- Output_Style&#45;&gt;Property -->
<g id="edge16" class="edge">
<title>Output_Style&#45;&gt;Property</title>
<path fill="none" stroke="black" d="M164.58,-288.41C174.73,-279.3 187.47,-267.87 198.56,-257.92"/>
<polygon fill="black" stroke="black" points="201.17,-260.27 206.28,-250.99 196.5,-255.06 201.17,-260.27"/>
</g>
<!-- Output_Style&#45;&gt;Configuration -->
<g id="edge17" class="edge">
<title>Output_Style&#45;&gt;Configuration</title>
<path fill="none" stroke="black" d="M129.03,-288.41C120.02,-279.65 108.79,-268.73 98.84,-259.06"/>
<polygon fill="black" stroke="black" points="101.14,-256.42 91.53,-251.96 96.26,-261.44 101.14,-256.42"/>
</g>
<!-- Gen_Construction -->
<g id="node10" class="node">
<title>Gen_Construction</title>
<ellipse fill="none" stroke="black" cx="346.09" cy="-378" rx="93.68" ry="18"/>
<text text-anchor="middle" x="346.09" y="-374.3" font-family="Times,serif" font-size="14.00">Gen_Construction</text>
</g>
<!-- Gen_Construction&#45;&gt;Generator -->
<g id="edge14" class="edge">
<title>Gen_Construction&#45;&gt;Generator</title>
<path fill="none" stroke="black" d="M351.78,-359.7C354.34,-351.9 357.43,-342.51 360.28,-333.83"/>
<polygon fill="black" stroke="black" points="363.68,-334.7 363.47,-324.1 357.03,-332.51 363.68,-334.7"/>
</g>
<!-- Gen_Construction&#45;&gt;Property -->
<g id="edge15" class="edge">
<title>Gen_Construction&#45;&gt;Property</title>
<path fill="none" stroke="black" d="M331.62,-360.15C310.13,-335.15 269.69,-288.07 244.99,-259.32"/>
<polygon fill="black" stroke="black" points="247.34,-256.69 238.17,-251.39 242.03,-261.25 247.34,-256.69"/>
</g>
<!-- Spec_Check_Comp -->
<g id="node11" class="node">
<title>Spec_Check_Comp</title>
<ellipse fill="none" stroke="black" cx="257.09" cy="-450" rx="96.68" ry="18"/>
<text text-anchor="middle" x="257.09" y="-446.3" font-family="Times,serif" font-size="14.00">Spec_Check_Comp</text>
</g>
<!-- Spec_Check_Comp&#45;&gt;Spec_Check -->
<g id="edge18" class="edge">
<title>Spec_Check_Comp&#45;&gt;Spec_Check</title>
<path fill="none" stroke="black" d="M236.24,-432.41C224.65,-423.19 210.06,-411.59 197.45,-401.55"/>
<polygon fill="black" stroke="black" points="199.5,-398.71 189.49,-395.23 195.14,-404.19 199.5,-398.71"/>
</g>
<!-- Spec_Check_Comp&#45;&gt;Gen_Construction -->
<g id="edge19" class="edge">
<title>Spec_Check_Comp&#45;&gt;Gen_Construction</title>
<path fill="none" stroke="black" d="M278.19,-432.41C289.74,-423.32 304.24,-411.92 316.86,-401.99"/>
<polygon fill="black" stroke="black" points="319.15,-404.65 324.84,-395.71 314.82,-399.14 319.15,-404.65"/>
</g>
</g>
</svg>
